# xmcd CD database file
#
# Track frame offsets:
#	150
#	11142
#	23000
#	36322
#	51572
#	61382
#	68197
#	82415
#	96980
#	110672
#	122452
#	135420
#	148792
#	165747
#	178065
#	189845
#	198910
#	209307
#	221747
#	234520
#	248305
#	253850
#
# Disc length: 3564 seconds
#
# Revision: 0
# Processed by: cddbd v1.5PL3 Copyright (c) Steve Scherf et al.
# Submitted via: CDex 1.51
#
DISCID=460dea16
DTITLE=Eddie South - The Dark Angel of the Fiddle
DYEAR=1900
DGENRE=Jazz
TTITLE0=Idaho
TTITLE1=Tabu
TTITLE2=Blues in the Night
TTITLE3=Daybreak
TTITLE4=Tzigani in Rhythm
TTITLE5=Paganini in Rhythm
TTITLE6=Marcheta
TTITLE7=Deep Purple
TTITLE8=Solace
TTITLE9=Dr. Groove
TTITLE10=Hejre Kati
TTITLE11=Rhapsody in Blue
TTITLE12=Yesterdays
TTITLE13=Kol Nidre
TTITLE14=Mad Monk
TTITLE15=Rose Room
TTITLE16=Dear Old Southland
TTITLE17=Snowfall
TTITLE18=Cherokee
TTITLE19=Mad Monk
TTITLE20=Rhapsody in Blue [Short Version]
TTITLE21=Jersey Bounce
EXTD=
EXTT0=
EXTT1=
EXTT2=
EXTT3=
EXTT4=
EXTT5=
EXTT6=
EXTT7=
EXTT8=
EXTT9=
EXTT10=
EXTT11=
EXTT12=
EXTT13=
EXTT14=
EXTT15=
EXTT16=
EXTT17=
EXTT18=
EXTT19=
EXTT20=
EXTT21=
PLAYORDER=
